<svg width="10" height="10" viewBox="0 0 10 10" fill="none" xmlns="http://www.w3.org/2000/svg">
<g clip-path="url(#clip0_3268_47)">
<path d="M8.68355 1.92062C8.47073 1.7077 8.21805 1.5388 7.93994 1.42357C7.66184 1.30833 7.36375 1.24902 7.06271 1.24902C6.76168 1.24902 6.46359 1.30833 6.18548 1.42357C5.90737 1.5388 5.65469 1.7077 5.44188 1.92062L5.00021 2.36228L4.55855 1.92062C4.12867 1.49075 3.54564 1.24925 2.93771 1.24925C2.32978 1.24925 1.74675 1.49075 1.31688 1.92062C0.887007 2.35049 0.645508 2.93352 0.645508 3.54145C0.645508 4.14938 0.887007 4.73241 1.31688 5.16228L5.00021 8.84562L8.68355 5.16228C8.89646 4.94947 9.06536 4.69679 9.18059 4.41868C9.29583 4.14057 9.35514 3.84249 9.35514 3.54145C9.35514 3.24041 9.29583 2.94233 9.18059 2.66422C9.06536 2.38611 8.89646 2.13343 8.68355 1.92062Z" stroke="#6B7280" stroke-linecap="round" stroke-linejoin="round"/>
</g>
<defs>
<clipPath id="clip0_3268_47">
<rect width="10" height="10" fill="white"/>
</clipPath>
</defs>
</svg>
