<svg width="129" height="34" viewBox="0 0 129 34" fill="none" xmlns="http://www.w3.org/2000/svg">
<path d="M30.9329 27.4718C29.7741 27.4718 28.7421 27.227 27.8369 26.7374C26.9497 26.2478 26.2527 25.5678 25.7457 24.6974C25.2388 23.827 24.9853 22.8206 24.9853 21.6782V14.0622H28.5701V21.5966C28.5701 22.1406 28.6607 22.612 28.8417 23.011C29.0228 23.3918 29.2943 23.6819 29.6564 23.8814C30.0186 24.0808 30.444 24.1806 30.9329 24.1806C31.6752 24.1806 32.2546 23.9539 32.671 23.5006C33.0874 23.0472 33.2956 22.4126 33.2956 21.5966V14.0622H36.8533V21.6782C36.8533 22.8387 36.5998 23.8542 36.0929 24.7246C35.604 25.595 34.907 26.275 34.0017 26.7646C33.1146 27.236 32.0916 27.4718 30.9329 27.4718ZM39.6864 27.1998V14.0622H43.2713V27.1998H39.6864ZM41.4788 11.9406C40.8995 11.9406 40.4197 11.7502 40.0395 11.3694C39.6593 10.9704 39.4692 10.4808 39.4692 9.90058C39.4692 9.33845 39.6593 8.85791 40.0395 8.45898C40.4197 8.06005 40.8995 7.86058 41.4788 7.86058C42.0763 7.86058 42.5561 8.06005 42.9182 8.45898C43.2984 8.85791 43.4885 9.33845 43.4885 9.90058C43.4885 10.4808 43.2984 10.9704 42.9182 11.3694C42.5561 11.7502 42.0763 11.9406 41.4788 11.9406ZM52.6148 27.4718C51.275 27.4718 50.071 27.1726 49.0028 26.5742C47.9346 25.9758 47.0927 25.1598 46.4771 24.1262C45.8616 23.0926 45.5538 21.932 45.5538 20.6446C45.5538 19.339 45.8616 18.1694 46.4771 17.1358C47.0927 16.1022 47.9346 15.2862 49.0028 14.6878C50.0891 14.0712 51.2931 13.763 52.6148 13.763C53.6468 13.763 54.5974 13.9534 55.4664 14.3342C56.3355 14.715 57.0868 15.259 57.7205 15.9662L55.4392 18.2782C55.0952 17.8974 54.6788 17.6072 54.19 17.4078C53.7192 17.2083 53.1942 17.1086 52.6148 17.1086C51.963 17.1086 51.3746 17.2627 50.8496 17.571C50.3426 17.8611 49.9352 18.2691 49.6275 18.795C49.3378 19.3027 49.1929 19.9102 49.1929 20.6174C49.1929 21.3064 49.3378 21.923 49.6275 22.467C49.9352 22.9928 50.3426 23.4099 50.8496 23.7182C51.3746 24.0083 51.963 24.1534 52.6148 24.1534C53.2123 24.1534 53.7464 24.0536 54.2171 23.8542C54.706 23.6366 55.1224 23.3283 55.4664 22.9294L57.7748 25.2414C57.1049 25.9667 56.3355 26.5198 55.4664 26.9006C54.5974 27.2814 53.6468 27.4718 52.6148 27.4718ZM68.1542 27.1998L63.0757 20.427L68.1271 14.0622H72.2279L66.3075 21.243L66.4433 19.5022L72.4995 27.1998H68.1542ZM59.7896 27.1998V7.53418H63.3473V27.1998H59.7896ZM83.3714 27.4718C81.9773 27.4718 80.6827 27.227 79.4878 26.7374C78.2928 26.2296 77.2427 25.5315 76.3375 24.643C75.4503 23.7363 74.7623 22.6846 74.2735 21.4878C73.8027 20.291 73.5674 19.0035 73.5674 17.6254C73.5674 16.2472 73.8027 14.9598 74.2735 13.763C74.7623 12.5662 75.4503 11.5235 76.3375 10.635C77.2427 9.74645 78.2838 9.04831 79.4606 8.54058C80.6556 8.03285 81.9592 7.77898 83.3714 7.77898C84.8922 7.77898 86.232 8.03285 87.3907 8.54058C88.5495 9.03018 89.5724 9.71018 90.4596 10.5806L87.9611 13.083C87.436 12.5027 86.7933 12.0494 86.0328 11.723C85.2724 11.3966 84.3853 11.2334 83.3714 11.2334C82.4842 11.2334 81.6695 11.3875 80.9272 11.6958C80.2029 11.9859 79.5693 12.4211 79.0261 13.0014C78.4829 13.5635 78.0665 14.2435 77.7768 15.0414C77.4872 15.8211 77.3423 16.6824 77.3423 17.6254C77.3423 18.5864 77.4872 19.4568 77.7768 20.2366C78.0665 21.0163 78.4829 21.6963 79.0261 22.2766C79.5693 22.8387 80.2029 23.2739 80.9272 23.5822C81.6695 23.8904 82.4842 24.0446 83.3714 24.0446C84.4396 24.0446 85.3539 23.8814 86.1143 23.555C86.8928 23.2286 87.5446 22.7662 88.0697 22.1678L90.5682 24.6702C89.6811 25.5587 88.6491 26.2478 87.4722 26.7374C86.2954 27.227 84.9284 27.4718 83.3714 27.4718ZM97.8968 27.4718C96.7018 27.4718 95.6246 27.1726 94.665 26.5742C93.7054 25.9758 92.954 25.1598 92.4109 24.1262C91.8677 23.0926 91.5961 21.932 91.5961 20.6446C91.5961 19.339 91.8677 18.1694 92.4109 17.1358C92.954 16.1022 93.7054 15.2862 94.665 14.6878C95.6246 14.0894 96.7018 13.7902 97.8968 13.7902C98.8382 13.7902 99.6801 13.9806 100.422 14.3614C101.165 14.7422 101.753 15.2771 102.188 15.9662C102.64 16.6371 102.885 17.3987 102.921 18.251V22.9838C102.885 23.8542 102.64 24.6248 102.188 25.2958C101.753 25.9667 101.165 26.5016 100.422 26.9006C99.6801 27.2814 98.8382 27.4718 97.8968 27.4718ZM98.5486 24.1806C99.5443 24.1806 100.35 23.8542 100.966 23.2014C101.581 22.5304 101.889 21.6691 101.889 20.6174C101.889 19.9283 101.744 19.3208 101.454 18.795C101.183 18.251 100.794 17.8339 100.287 17.5438C99.7978 17.2355 99.2185 17.0814 98.5486 17.0814C97.8968 17.0814 97.3174 17.2355 96.8104 17.5438C96.3216 17.8339 95.9323 18.251 95.6427 18.795C95.3711 19.3208 95.2353 19.9283 95.2353 20.6174C95.2353 21.3246 95.3711 21.9502 95.6427 22.4942C95.9323 23.02 96.3216 23.4371 96.8104 23.7454C97.3174 24.0355 97.8968 24.1806 98.5486 24.1806ZM101.699 27.1998V23.6638L102.269 20.4542L101.699 17.299V14.0622H105.229V27.1998H101.699ZM108.377 27.1998V14.0622H111.934V27.1998H108.377ZM111.934 19.9374L110.549 19.0126C110.712 17.3987 111.183 16.1294 111.962 15.2046C112.74 14.2616 113.863 13.7902 115.329 13.7902C115.963 13.7902 116.533 13.899 117.04 14.1166C117.547 14.316 118.009 14.6515 118.425 15.123L116.198 17.6798C115.999 17.4622 115.755 17.299 115.465 17.1902C115.194 17.0814 114.877 17.027 114.515 17.027C113.754 17.027 113.129 17.2718 112.641 17.7614C112.17 18.2328 111.934 18.9582 111.934 19.9374ZM121.683 27.1998V8.59498H125.241V27.1998H121.683ZM118.614 17.1902V14.0622H128.31V17.1902H118.614Z" fill="#1F2937"/>
<mask id="mask0_3277_1003" style="mask-type:luminance" maskUnits="userSpaceOnUse" x="0" y="5" width="23" height="24">
<path d="M22.6316 5.66699H0V28.3337H22.6316V5.66699Z" fill="white"/>
</mask>
<g mask="url(#mask0_3277_1003)">
<path d="M12.7687 6.73211C12.7913 6.73544 12.8139 6.73877 12.8372 6.74222C12.9526 6.75976 13.0666 6.78081 13.1807 6.80522C13.2247 6.81462 13.2688 6.82373 13.313 6.83264C14.9474 7.16305 16.5035 7.89683 17.7865 8.96399C17.8194 8.99104 17.8525 9.0176 17.8857 9.04406C18.1553 9.259 18.3987 9.50427 18.6426 9.7476C18.6615 9.76647 18.6804 9.78533 18.7 9.80478C18.8067 9.91199 18.9091 10.0214 19.007 10.1368C19.0218 10.154 19.0218 10.154 19.0368 10.1716C19.5206 10.7333 19.9422 11.3391 20.2975 11.9901C20.3088 12.0107 20.3202 12.0314 20.3318 12.0527C20.5909 12.5301 20.8108 13.0272 20.986 13.5416C20.9933 13.5631 21.0008 13.5848 21.0085 13.6071C21.1416 13.9965 21.2445 14.3889 21.3301 14.7913C21.3345 14.8117 21.3389 14.832 21.3434 14.853C21.4182 15.2023 21.4617 15.5572 21.5022 15.912C21.5041 15.9273 21.506 15.9427 21.508 15.9586C21.526 16.1169 21.5275 16.2745 21.5281 16.4338C21.5282 16.4635 21.5283 16.493 21.5286 16.5226C21.5289 16.6171 21.529 16.7117 21.5291 16.8062C21.5291 16.8223 21.5291 16.8382 21.5291 16.8548C21.5296 17.4242 21.5194 17.9843 21.4103 18.5452C21.397 18.6147 21.3852 18.6843 21.3743 18.7544C21.3491 18.9087 21.3145 19.0608 21.2796 19.2133C21.2683 19.2627 21.2572 19.3122 21.2461 19.3617C21.2048 19.5446 21.156 19.7214 21.0935 19.8985C21.0789 19.9446 21.0645 19.9908 21.0505 20.0372C21.0433 20.0604 21.0362 20.0835 21.029 20.1075C21.0144 20.1555 21.0001 20.2036 20.986 20.2517C20.95 20.3728 20.9119 20.4888 20.858 20.6031C20.8357 20.6519 20.8159 20.7011 20.7964 20.7511C20.5225 21.4415 20.16 22.077 19.7598 22.6998C19.6842 22.6674 19.6355 22.6238 19.5776 22.5657C19.5585 22.5465 19.5394 22.5275 19.5197 22.5077C19.4987 22.4866 19.4777 22.4654 19.4566 22.4442C19.4344 22.4218 19.4122 22.3995 19.3899 22.3772C19.3295 22.3168 19.2691 22.2561 19.2089 22.1955C19.1459 22.132 19.0828 22.0688 19.0197 22.0056C18.9002 21.8858 18.7809 21.7659 18.6616 21.6458C18.5257 21.5093 18.3898 21.3728 18.2538 21.2365C17.9741 20.9558 17.6946 20.675 17.4151 20.3941C17.443 20.323 17.4729 20.255 17.5081 20.1872C17.6432 19.9237 17.7627 19.6585 17.8668 19.3813C17.8721 19.3674 17.8773 19.3534 17.8827 19.3391C17.8934 19.3111 17.9038 19.283 17.9142 19.255C17.9265 19.2219 17.9391 19.189 17.9518 19.1561C18.0125 18.9957 18.0552 18.8329 18.0954 18.6661C18.1018 18.6399 18.1083 18.6136 18.1148 18.5865C18.1273 18.5358 18.1396 18.485 18.1518 18.4342C18.1642 18.384 18.1774 18.3345 18.1912 18.2847C18.2223 18.1604 18.2344 18.0321 18.2498 17.9051C18.2552 17.8599 18.2609 17.8148 18.2667 17.7697C18.3884 16.7918 18.3501 15.6977 17.9905 14.7692C17.9677 14.7091 17.9481 14.648 17.9283 14.5869C17.8723 14.4143 17.8126 14.2456 17.7378 14.0803C17.7305 14.0643 17.7233 14.0483 17.7159 14.0319C17.3691 13.2688 16.8993 12.5536 16.2965 11.9684C16.2438 11.9161 16.1915 11.8634 16.1396 11.8099C16.0128 11.6798 15.8795 11.5641 15.7373 11.4513C15.7154 11.4334 15.6936 11.4156 15.6712 11.3971C15.0603 10.8992 14.3633 10.5317 13.6245 10.2662C13.5841 10.2516 13.5437 10.2368 13.5035 10.2218C13.3817 10.1764 13.2602 10.1367 13.1344 10.1045C13.117 10.1 13.0995 10.0955 13.0816 10.0909C12.8122 10.0224 12.5426 9.96633 12.2672 9.92807C12.2487 9.9255 12.2303 9.92293 12.2113 9.92028C11.8897 9.87807 11.5692 9.87307 11.2454 9.87286C11.2229 9.87283 11.2005 9.87281 11.1773 9.87279C10.8428 9.873 10.5173 9.88329 10.1873 9.94289C10.1692 9.946 10.1511 9.94912 10.1324 9.95233C8.82761 10.1799 7.57906 10.7545 6.60444 11.6613C6.55952 11.7029 6.51383 11.7429 6.46722 11.7827C6.28903 11.9379 6.12185 12.1096 5.97112 12.2918C5.96146 12.3032 5.95179 12.3148 5.94184 12.3267C5.55482 12.7898 5.21248 13.295 4.9583 13.8442C4.93763 13.8884 4.91603 13.932 4.89438 13.9758C4.77959 14.2134 4.69278 14.4593 4.60919 14.7093C4.60371 14.7255 4.59823 14.7417 4.59259 14.7585C4.50019 15.034 4.40749 15.319 4.38374 15.6101C4.37878 15.6583 4.36935 15.7042 4.35912 15.7516C4.32731 15.9042 4.31043 16.059 4.29325 16.2137C4.29143 16.2296 4.28962 16.2457 4.28774 16.2623C4.27453 16.3857 4.26778 16.5078 4.26661 16.6318C4.2664 16.6506 4.26618 16.6693 4.26597 16.6886C4.25144 18.3238 4.70918 19.9175 5.7345 21.2129C5.75178 21.2348 5.76904 21.2568 5.78684 21.2793C5.87969 21.3947 5.97663 21.5058 6.07632 21.6154C6.11646 21.6597 6.15549 21.7048 6.1943 21.7503C6.34325 21.9214 6.50707 22.0804 6.68098 22.2258C6.69859 22.2405 6.71621 22.2552 6.73435 22.2704C6.79504 22.3207 6.85621 22.3703 6.91761 22.4197C6.93814 22.4363 6.95865 22.453 6.97979 22.4701C7.53535 22.9103 8.17968 23.2817 8.85345 23.5034C8.89986 23.5198 8.94456 23.5391 8.98982 23.5585C9.14093 23.6198 9.29848 23.6588 9.45596 23.6999C9.50906 23.7138 9.56207 23.728 9.61508 23.7423C9.84706 23.8038 10.0789 23.8507 10.3164 23.885C10.3307 23.8871 10.3451 23.8893 10.3599 23.8914C10.6823 23.9372 11.0003 23.9384 11.3274 23.9497C11.3274 21.6315 11.3274 19.3132 11.3274 16.9247C11.4968 17.0701 11.4968 17.0701 11.5613 17.1347C11.576 17.1495 11.5908 17.1642 11.606 17.1794C11.6296 17.2032 11.6296 17.2032 11.6537 17.2273C11.6709 17.2445 11.6881 17.2617 11.7058 17.2793C11.7634 17.337 11.8208 17.3946 11.8782 17.4523C11.9199 17.494 11.9616 17.5357 12.0033 17.5774C12.0938 17.6681 12.1843 17.7587 12.2749 17.8494C12.4095 17.9844 12.5442 18.1193 12.6788 18.254C12.9193 18.4948 13.1597 18.7357 13.4001 18.9766C13.6105 19.1873 13.8207 19.398 14.0311 19.6087C14.052 19.6296 14.052 19.6296 14.0733 19.6509C14.13 19.7077 14.1865 19.7644 14.2431 19.8211C14.7742 20.3529 15.3051 20.8849 15.836 21.4169C16.308 21.8899 16.7801 22.3628 17.2523 22.8356C17.7826 23.3667 18.3127 23.8978 18.8429 24.429C18.8993 24.4855 18.9558 24.5421 19.0123 24.5986C19.0262 24.6126 19.0401 24.6265 19.0545 24.6409C19.2647 24.8516 19.4751 25.0623 19.6855 25.2729C19.9244 25.5122 20.1633 25.7516 20.4022 25.991C20.5361 26.1251 20.6699 26.2592 20.8038 26.3933C20.8931 26.4827 20.9824 26.5721 21.0715 26.6615C21.1224 26.7126 21.1734 26.7636 21.2244 26.8146C21.2792 26.8694 21.3338 26.9242 21.3885 26.9791C21.4045 26.9952 21.4206 27.0113 21.4372 27.0278C21.4516 27.0423 21.466 27.0568 21.4808 27.0717C21.4996 27.0905 21.4996 27.0905 21.5188 27.1098C21.5452 27.1389 21.5452 27.1389 21.5452 27.1604C20.8452 27.2366 20.1448 27.2868 19.4411 27.3153C19.4153 27.3164 19.3895 27.3175 19.363 27.3186C18.1135 27.3692 17.0034 27.3716 16.0424 26.4867C15.8538 26.3092 15.6806 26.1187 15.5113 25.9227C15.4922 25.9006 15.4922 25.9006 15.4725 25.8779C15.1539 25.5096 14.8581 25.1273 14.5854 24.7236C14.557 24.6798 14.5569 24.6798 14.5111 24.6607C14.5111 25.315 14.5111 25.9692 14.5111 26.6433C14.2707 26.7235 14.0364 26.7998 13.7917 26.8614C13.7628 26.8688 13.7338 26.8763 13.7047 26.8837C13.2808 26.9911 12.8584 27.0645 12.4244 27.1174C12.3983 27.1209 12.3722 27.1244 12.3451 27.128C11.3397 27.2534 10.2709 27.1854 9.28089 26.9793C9.2226 26.9672 9.16422 26.9556 9.10579 26.9443C8.89947 26.9035 8.6988 26.8515 8.49805 26.7889C8.43848 26.7705 8.37869 26.7531 8.31887 26.7356C7.24674 26.4196 6.20091 25.9141 5.30427 25.2426C5.27551 25.2213 5.24674 25.2001 5.21798 25.1788C4.98312 25.0045 4.75716 24.8235 4.54197 24.625C4.49423 24.5813 4.44583 24.5387 4.39677 24.4964C4.32278 24.4321 4.25423 24.3636 4.1856 24.2936C4.14449 24.2532 4.102 24.2158 4.05796 24.1786C3.97523 24.1071 3.90374 24.0287 3.83168 23.9465C3.79197 23.9019 3.75191 23.8581 3.71085 23.8147C3.57203 23.6681 3.44203 23.5181 3.31936 23.3576C3.28079 23.3072 3.24135 23.2578 3.20071 23.2091C2.69132 22.5949 2.26161 21.8617 1.94853 21.1268C1.9395 21.1056 1.93046 21.0845 1.92116 21.0627C1.89069 20.9912 1.86043 20.9196 1.83021 20.848C1.82004 20.8239 1.80986 20.7999 1.79937 20.7751C1.61841 20.3465 1.47986 19.9191 1.36772 19.4675C1.36228 19.4459 1.35685 19.4244 1.35125 19.4022C1.14974 18.6028 1.04011 17.8031 1.04102 16.9786C1.04103 16.9585 1.04103 16.9383 1.04104 16.9177C1.04171 16.4119 1.05978 15.9075 1.14327 15.4078C1.15353 15.3461 1.1632 15.2844 1.17286 15.2228C1.25688 14.6934 1.38584 14.1842 1.55595 13.6762C1.56155 13.6595 1.56715 13.6427 1.57292 13.6254C1.66563 13.3483 1.76643 13.0765 1.88399 12.8089C1.89223 12.7898 1.90048 12.7706 1.90898 12.751C2.04148 12.4444 2.19216 12.1508 2.35723 11.8608C2.36853 11.8408 2.37982 11.821 2.39146 11.8005C2.55341 11.5166 2.72681 11.2432 2.91653 10.9772C2.93522 10.951 2.93522 10.951 2.95429 10.9242C3.09594 10.7266 3.24116 10.5338 3.40062 10.3501C3.4507 10.2919 3.49826 10.2322 3.54573 10.1718C3.64082 10.0544 3.74637 9.94895 3.85434 9.84353C3.93099 9.76848 4.00231 9.69146 4.07125 9.60927C4.1056 9.56969 4.14267 9.53586 4.183 9.50248C4.243 9.45146 4.299 9.39884 4.35374 9.34221C4.43779 9.2567 4.52869 9.18216 4.62204 9.10711C4.67442 9.0643 4.72463 9.02015 4.77456 8.97453C5.25875 8.54006 5.83307 8.18554 6.40135 7.87419C6.422 7.86286 6.44265 7.85152 6.46392 7.83985C6.88798 7.60892 7.33041 7.3909 7.79369 7.25062C7.85263 7.23145 7.90867 7.20999 7.96595 7.18648C8.54747 6.9505 9.1822 6.82801 9.80011 6.73211C9.82253 6.72859 9.82253 6.72859 9.84541 6.725C10.7974 6.57797 11.8172 6.58761 12.7687 6.73211Z" fill="#FF532E"/>
<path d="M14.8644 18.4756C14.8722 18.4911 14.88 18.5068 14.8881 18.5227C14.8686 18.5422 14.8491 18.5617 14.8291 18.5818C14.8408 18.5468 14.8524 18.5116 14.8644 18.4756Z" fill="#FF532E"/>
<path d="M6.53061 14.0381C6.5424 14.0736 6.5424 14.0736 6.52767 14.1038C6.50704 14.1326 6.50704 14.1326 6.47168 14.1562C6.48742 14.1138 6.50658 14.0764 6.53061 14.0381Z" fill="#FF532E"/>
</g>
</svg>
