<svg width="403" height="356" viewBox="0 0 403 356" fill="none" xmlns="http://www.w3.org/2000/svg">
<g clip-path="url(#clip0_3293_328)">
<path d="M385.149 355.527L384.612 355.326C384.494 355.281 372.758 350.789 367.26 340.604C361.762 330.418 364.454 318.154 364.482 318.031L364.609 317.473L365.145 317.674C365.263 317.718 376.999 322.21 382.497 332.396C387.995 342.582 385.303 354.846 385.275 354.968L385.149 355.527ZM368.141 340.13C372.789 348.742 382.063 353.156 384.413 354.164C384.86 351.648 386.261 341.474 381.617 332.87C376.973 324.267 367.695 319.846 365.344 318.836C364.897 321.353 363.497 331.526 368.141 340.13Z" fill="#3F3D56"/>
<path d="M371.461 337.031C381.342 342.969 385.147 354.765 385.147 354.765C385.147 354.765 372.933 356.932 363.053 350.993C353.172 345.055 349.367 333.26 349.367 333.26C349.367 333.26 361.581 331.093 371.461 337.031Z" fill="#FF532E"/>
<path d="M212.395 190.792C212.874 190.052 213.504 189.421 214.244 188.942C214.984 188.462 215.817 188.144 216.688 188.008C217.559 187.873 218.45 187.922 219.301 188.154C220.151 188.386 220.944 188.795 221.625 189.354C221.84 189.532 222.042 189.725 222.23 189.931L246.836 186.353L248.205 167.869C248.31 166.451 248.974 165.132 250.052 164.204C251.13 163.275 252.533 162.812 253.953 162.917C255.372 163.022 256.692 163.685 257.621 164.762C258.551 165.839 259.014 167.241 258.909 168.659C258.907 168.692 258.904 168.724 258.901 168.757L256.503 194.694L256.491 194.752C256.179 195.749 255.553 196.619 254.707 197.232C253.861 197.846 252.839 198.171 251.794 198.158L222.852 197.659C222.74 197.831 222.619 197.996 222.489 198.155C221.929 198.835 221.232 199.39 220.442 199.783C219.653 200.176 218.789 200.397 217.908 200.434C217.027 200.47 216.148 200.319 215.329 199.992C214.51 199.665 213.769 199.169 213.156 198.536C213.031 198.409 212.913 198.277 212.801 198.141C211.967 197.115 211.479 195.852 211.406 194.532C211.333 193.212 211.679 191.903 212.395 190.792Z" fill="#FFB7B7"/>
<path d="M262.003 348.391L254.985 348.39L251.646 321.349L262.004 321.349L262.003 348.391Z" fill="#FFB7B7"/>
<path d="M263.792 355.187L241.164 355.186V354.9C241.164 352.567 242.092 350.329 243.744 348.679C245.396 347.029 247.636 346.102 249.972 346.102H249.972L263.793 346.102L263.792 355.187Z" fill="#2F2E41"/>
<path d="M311.041 342.034L304.399 344.297L292.5 319.781L302.303 316.44L311.041 342.034Z" fill="#FFB7B7"/>
<path d="M314.932 347.889L293.515 355.187L293.423 354.916C292.669 352.708 292.824 350.29 293.854 348.196C294.884 346.101 296.704 344.502 298.915 343.748L298.916 343.748L311.996 339.291L314.932 347.889Z" fill="#2F2E41"/>
<path d="M269.73 111.951C269.73 111.951 262.745 109.647 258.255 118.865C253.764 128.083 246.779 138.223 246.779 138.223L250.771 139.144C250.771 139.144 251.769 132.692 254.263 131.77L253.265 140.066C253.265 140.066 283.201 149.745 296.672 139.144L296.173 135.918C296.173 135.918 298.169 136.379 298.169 139.144L299.665 137.762C299.665 137.762 298.169 134.996 293.678 131.309C290.731 128.889 289.718 124.285 289.37 121.406C289.094 118.969 288.048 116.683 286.384 114.88C283.399 111.685 277.962 108.29 269.73 111.951Z" fill="#2F2E41"/>
<path d="M272.304 144.157C279.35 144.157 285.062 138.451 285.062 131.412C285.062 124.373 279.35 118.667 272.304 118.667C265.259 118.667 259.547 124.373 259.547 131.412C259.547 138.451 265.259 144.157 272.304 144.157Z" fill="#FFB7B7"/>
<path d="M255.294 154.651L252.975 153.879C252.975 153.879 248.336 155.81 248.336 159.286C248.336 162.762 247.562 176.665 247.562 176.665L258.001 177.824L255.294 154.651Z" fill="#CBCBCB"/>
<path d="M296.812 230.618C295.85 229.541 295.307 228.155 295.281 226.712C295.256 225.269 295.75 223.864 296.674 222.754L290.162 168.275C290.098 166.991 290.548 165.733 291.411 164.779C292.274 163.824 293.481 163.251 294.767 163.185C296.053 163.119 297.313 163.565 298.269 164.426C299.226 165.286 299.802 166.491 299.871 167.776C299.872 167.793 299.873 167.811 299.874 167.829L305.699 222.366C305.91 222.577 306.105 222.805 306.281 223.047C306.749 223.692 307.084 224.423 307.268 225.198C307.453 225.973 307.483 226.777 307.356 227.563C307.23 228.35 306.949 229.104 306.531 229.782C306.113 230.46 305.565 231.05 304.919 231.516C304.852 231.565 304.784 231.612 304.715 231.657C303.967 232.152 303.119 232.475 302.231 232.603C301.343 232.731 300.438 232.662 299.58 232.399C298.509 232.075 297.55 231.458 296.812 230.618Z" fill="#FFB7B7"/>
<path d="M290.848 176.666L301.286 175.507C301.286 175.507 300.513 161.603 300.513 158.128C300.513 154.652 295.873 152.721 295.873 152.721L293.554 153.493L290.848 176.666Z" fill="#CBCBCB"/>
<path d="M256.841 195.956C256.841 195.956 247.949 212.197 247.949 231.893C247.949 251.59 247.176 341.962 247.176 341.962C247.176 341.962 258.774 347.369 265.732 340.804L271.918 240.776L296.273 338.872C296.273 338.872 307.871 341.19 313.283 337.328L302.845 268.969C302.845 268.969 298.593 204.859 286.995 200.224C275.397 195.59 256.841 195.956 256.841 195.956Z" fill="#2F2E41"/>
<path d="M258.519 131.493C263.035 128.228 266.691 124.467 269.11 119.993C269.11 119.993 277.398 129.193 282.463 129.653C287.528 130.113 282.923 118.613 282.923 118.613L273.714 116.313L264.965 117.233L258.059 121.833L258.519 131.493Z" fill="#2F2E41"/>
<path d="M285.062 150.403C285.062 150.403 285.43 150.206 263.414 151.007L254.199 153.542L252.975 153.879C252.975 153.879 254.134 177.052 257.227 181.3C260.32 185.548 259.547 187.865 258.774 188.252C258 188.638 256.067 187.865 257.227 189.796C258.387 191.728 259.933 190.569 258.387 191.728C256.841 192.886 256.067 197.134 256.067 197.134L290.088 201.769C290.088 201.769 291.247 186.707 294.34 178.983C297.433 171.259 298.206 168.169 298.206 168.169L295.887 152.721L285.062 150.403Z" fill="#CBCBCB"/>
<path d="M220.384 84.5272H218.427V30.9874C218.427 22.769 215.159 14.8873 209.342 9.07602C203.525 3.26475 195.636 1.32477e-05 187.409 1.16512e-10L73.8642 1.16516e-10C65.6376 -2.25208e-05 57.7479 3.26469 51.9308 9.07592C46.1137 14.8872 42.8457 22.7689 42.8457 30.9873V324.711C42.8457 332.929 46.1137 340.811 51.9308 346.622C57.7478 352.433 65.6375 355.698 73.864 355.698H187.409C191.482 355.698 195.516 354.897 199.279 353.339C203.042 351.782 206.462 349.5 209.342 346.622C212.223 343.745 214.507 340.329 216.066 336.569C217.625 332.81 218.427 328.78 218.427 324.711V122.638H220.384L220.384 84.5272Z" fill="#3F3D56"/>
<path d="M211.826 31.2053V324.497C211.829 327.533 211.233 330.54 210.072 333.346C208.912 336.153 207.209 338.703 205.062 340.852C202.915 343.001 200.365 344.706 197.558 345.871C194.751 347.035 191.742 347.636 188.703 347.639H74.5713C68.4318 347.643 62.5422 345.211 58.1979 340.877C53.8536 336.543 51.4106 330.663 51.4063 324.529V31.2053C51.4041 28.1684 52.0007 25.1609 53.1621 22.3543C54.3234 19.5478 56.0268 16.9972 58.1748 14.8483C60.3228 12.6994 62.8735 10.9942 65.6812 9.83005C68.4889 8.66591 71.4987 8.06563 74.5386 8.06349H88.4113C87.7297 9.73282 87.4695 11.544 87.6537 13.3375C87.838 15.1309 88.4609 16.8516 89.4676 18.3478C90.4744 19.8441 91.834 21.07 93.4268 21.9176C95.0196 22.7652 96.7966 23.2085 98.6013 23.2083H163.651C165.456 23.2085 167.233 22.7652 168.826 21.9176C170.419 21.07 171.778 19.8441 172.785 18.3478C173.792 16.8516 174.415 15.1309 174.599 13.3375C174.783 11.544 174.523 9.73282 173.841 8.06349H188.661C194.799 8.05799 200.688 10.4887 205.033 14.8208C209.377 19.153 211.821 25.0317 211.826 31.1638L211.826 31.2053Z" fill="white"/>
<path d="M211.826 74.597V64.607H196.691V9.49212C194.121 8.54372 191.401 8.05996 188.661 8.0635H186.691V64.607H134.191V23.2084H124.191V64.607H80.1912V8.06355H74.5713C73.1013 8.06125 71.6345 8.20009 70.1912 8.47813V64.607H51.4063V74.597H70.1912V97.7041L51.4065 108.538V120.077L70.1912 109.243V177.993H51.4062V187.983H70.1912V287.384H51.4062V297.374H70.1912V347.224C71.6345 347.502 73.1013 347.641 74.5713 347.639H80.1912V297.374H124.191V347.639H134.191V297.374H186.691V347.639H188.661C191.401 347.642 194.121 347.158 196.691 346.21V297.374H211.826V287.384H196.691V243.928H211.691V233.938H196.691V187.984H211.826V177.993H196.691V117.054H211.826V107.064H196.691V74.597L211.826 74.597ZM110.257 74.597L80.1914 91.9398L80.1911 74.597H110.257ZM80.1911 103.473L124.191 78.0937V177.993H80.1911V103.473ZM80.1911 287.384V187.983H124.191V287.384H80.1911ZM186.691 287.384H134.191V243.927H186.691V287.384ZM186.691 233.937H134.191V187.983H186.691V233.937ZM186.691 177.993H134.191V117.054H186.691V177.993ZM186.691 107.064H134.191V74.597H186.691V107.064Z" fill="#E5E5E5"/>
<path d="M220.191 107.249C220.191 138.974 162.691 209.647 162.691 209.647C162.691 209.647 105.191 138.974 105.191 107.249C105.191 92.0145 111.249 77.4037 122.033 66.6312C132.816 55.8586 147.441 49.8066 162.691 49.8066C177.941 49.8066 192.567 55.8586 203.35 66.6312C214.133 77.4037 220.191 92.0145 220.191 107.249Z" fill="#FF532E"/>
<path d="M196.691 104.751C196.691 111.469 194.697 118.036 190.961 123.622C187.225 129.207 181.915 133.561 175.703 136.132C169.49 138.702 162.654 139.375 156.058 138.065C149.463 136.754 143.405 133.519 138.65 128.769C133.895 124.019 130.657 117.966 129.345 111.378C128.033 104.789 128.706 97.9594 131.28 91.7529C133.853 85.5465 138.211 80.2417 143.802 76.5095C149.393 72.7772 155.967 70.7852 162.691 70.7852C167.154 70.7831 171.574 71.6592 175.698 73.3635C179.822 75.0678 183.569 77.5668 186.727 80.718C189.884 83.8691 192.389 87.6106 194.099 91.7289C195.808 95.8472 196.689 100.262 196.691 104.72V104.751Z" fill="white"/>
<path d="M162.573 118.16C169.569 118.16 175.24 112.494 175.24 105.506C175.24 98.517 169.569 92.8516 162.573 92.8516C155.577 92.8516 149.906 98.517 149.906 105.506C149.906 112.494 155.577 118.16 162.573 118.16Z" fill="#FF532E"/>
<path d="M180.957 134.407C175.496 137.875 169.159 139.717 162.689 139.716C156.218 139.716 149.881 137.872 144.422 134.402C145.557 130.437 147.954 126.949 151.251 124.466C154.547 121.984 158.563 120.641 162.691 120.642C166.819 120.642 170.835 121.986 174.131 124.469C177.426 126.953 179.822 130.441 180.957 134.407Z" fill="#FF532E"/>
<path d="M162.691 251.105C171.252 251.105 178.191 244.172 178.191 235.62C178.191 227.068 171.252 220.136 162.691 220.136C154.131 220.136 147.191 227.068 147.191 235.62C147.191 244.172 154.131 251.105 162.691 251.105Z" fill="#FF532E"/>
<path d="M402.5 356H0.5C0.367392 356 0.240215 355.947 0.146447 355.854C0.0526784 355.76 0 355.633 0 355.5C0 355.368 0.0526784 355.241 0.146447 355.147C0.240215 355.054 0.367392 355.001 0.5 355.001H402.5C402.633 355.001 402.76 355.054 402.854 355.147C402.947 355.241 403 355.368 403 355.5C403 355.633 402.947 355.76 402.854 355.854C402.76 355.947 402.633 356 402.5 356Z" fill="#CBCBCB"/>
</g>
<defs>
<clipPath id="clip0_3293_328">
<rect width="403" height="356" fill="white"/>
</clipPath>
</defs>
</svg>
