<svg width="14" height="14" viewBox="0 0 14 14" fill="none" xmlns="http://www.w3.org/2000/svg">
<path d="M8.75 0C8.26602 0 7.875 0.391016 7.875 0.875C7.875 1.35898 8.26602 1.75 8.75 1.75H11.0113L5.50703 7.25703C5.16523 7.59883 5.16523 8.15391 5.50703 8.4957C5.84883 8.8375 6.40391 8.8375 6.7457 8.4957L12.25 2.98867V5.25C12.25 5.73398 12.641 6.125 13.125 6.125C13.609 6.125 14 5.73398 14 5.25V0.875C14 0.391016 13.609 0 13.125 0H8.75ZM2.1875 0.875C0.978906 0.875 0 1.85391 0 3.0625V11.8125C0 13.0211 0.978906 14 2.1875 14H10.9375C12.1461 14 13.125 13.0211 13.125 11.8125V8.75C13.125 8.26602 12.734 7.875 12.25 7.875C11.766 7.875 11.375 8.26602 11.375 8.75V11.8125C11.375 12.0531 11.1781 12.25 10.9375 12.25H2.1875C1.94687 12.25 1.75 12.0531 1.75 11.8125V3.0625C1.75 2.82188 1.94687 2.625 2.1875 2.625H5.25C5.73398 2.625 6.125 2.23398 6.125 1.75C6.125 1.26602 5.73398 0.875 5.25 0.875H2.1875Z" fill="white"/>
</svg>
